<svg width="25" height="24" viewBox="0 0 25 24" fill="none" xmlns="http://www.w3.org/2000/svg">
<path d="M7.35286 22.1304C6.85639 22.1304 6.43316 21.9536 6.08316 21.6001C5.73316 21.2465 5.55816 20.8215 5.55816 20.3251C5.55816 19.8286 5.73493 19.4054 6.08846 19.0554C6.44201 18.7054 6.86701 18.5304 7.36346 18.5304C7.85993 18.5304 8.28316 18.7072 8.63316 19.0607C8.98316 19.4142 9.15816 19.8392 9.15816 20.3357C9.15816 20.8322 8.98139 21.2554 8.62786 21.6054C8.27431 21.9554 7.84931 22.1304 7.35286 22.1304ZM17.3529 22.1304C16.8564 22.1304 16.4332 21.9536 16.0832 21.6001C15.7332 21.2465 15.5582 20.8215 15.5582 20.3251C15.5582 19.8286 15.7349 19.4054 16.0885 19.0554C16.442 18.7054 16.867 18.5304 17.3635 18.5304C17.8599 18.5304 18.2832 18.7072 18.6332 19.0607C18.9832 19.4142 19.1582 19.8392 19.1582 20.3357C19.1582 20.8322 18.9814 21.2554 18.6279 21.6054C18.2743 21.9554 17.8493 22.1304 17.3529 22.1304ZM6.32666 5.63038L8.83641 10.8499H15.994L18.8364 5.63038H6.32666ZM5.40708 3.81948H19.7241C20.2313 3.81948 20.6172 4.0463 20.8819 4.49993C21.1465 4.95357 21.1506 5.41191 20.894 5.87496L17.7593 11.5402C17.5571 11.8757 17.3005 12.1487 16.9895 12.3592C16.6784 12.5697 16.329 12.6749 15.941 12.6749H8.46686L7.16578 15.1195H19.3136V16.9304H7.10816C6.33279 16.9304 5.77681 16.6688 5.44021 16.1456C5.10363 15.6224 5.11251 15.0456 5.46686 14.4152L7.02446 11.5499L3.30923 3.65538H1.30273V1.84448H4.48208L5.40708 3.81948Z" fill="black"/>
</svg>
