<svg width="25" height="24" viewBox="0 0 25 24" fill="none" xmlns="http://www.w3.org/2000/svg">
<path fill-rule="evenodd" clip-rule="evenodd" d="M14.9431 13.27L20.6731 19L19.1831 20.49L13.4531 14.76C12.3831 15.53 11.0931 16 9.68311 16C6.09311 16 3.18311 13.09 3.18311 9.5C3.18311 5.91 6.09311 3 9.68311 3C13.2731 3 16.1831 5.91 16.1831 9.5C16.1831 10.91 15.7131 12.2 14.9431 13.27ZM9.68311 5C7.19311 5 5.18311 7.01 5.18311 9.5C5.18311 11.99 7.19311 14 9.68311 14C12.1731 14 14.1831 11.99 14.1831 9.5C14.1831 7.01 12.1731 5 9.68311 5Z" fill="black"/>
</svg>
